<svg width="21" height="18" viewBox="0 0 21 18" fill="none" xmlns="http://www.w3.org/2000/svg">
<path fill-rule="evenodd" clip-rule="evenodd" d="M20.6136 6.00005C20.6136 6.55034 20.5763 7.0788 20.5061 7.58604C20.4728 7.8262 20.2641 8 20.0216 8H15.773L14.5328 5.10608C14.3752 4.7384 14.0137 4.5 13.6136 4.5C13.2136 4.5 12.8521 4.7384 12.6945 5.10608L10.6136 9.96141L10.0328 8.60608C9.87521 8.2384 9.51368 8 9.11365 8H1.20565C0.963201 8 0.754464 7.8262 0.721227 7.58604C0.651031 7.07881 0.613647 6.55037 0.613647 6.00009C0.613647 2.68638 3.29994 0 6.61365 0C8.15036 0 9.55214 0.577707 10.6136 1.52779C11.6752 0.577707 13.0769 0 14.6136 0C17.9274 0 20.6136 2.68634 20.6136 6.00005ZM2.07383 10C1.72254 10 1.48208 10.3533 1.63059 10.6716C3.59405 14.8802 7.87646 17.0527 9.72966 17.8254C10.2991 18.0628 10.9282 18.0628 11.4976 17.8254C13.3508 17.0527 17.6332 14.8802 19.5967 10.6716C19.7452 10.3533 19.5047 10 19.1535 10H15.1136C14.7136 10 14.3521 9.7616 14.1945 9.39392L13.6136 8.03859L11.5328 12.8939C11.3752 13.2616 11.0137 13.5 10.6136 13.5C10.2136 13.5 9.85208 13.2616 9.6945 12.8939L8.45425 10H2.07383Z" fill="#323232"/>
</svg>
