<svg width="16" height="17" viewBox="0 0 16 17" fill="none" xmlns="http://www.w3.org/2000/svg">
<g clip-path="url(#clip0_1_425)">
<path fill-rule="evenodd" clip-rule="evenodd" d="M15.0624 11.4446C15.3207 11.703 15.3207 12.1218 15.0624 12.3802L12.4162 15.0264C12.1578 15.2847 11.739 15.2847 11.4806 15.0264L10.1575 13.7033C9.89917 13.4449 9.89917 13.0261 10.1575 12.7677C10.4159 12.5094 10.8347 12.5094 11.0931 12.7677L11.9484 13.623L14.1268 11.4446C14.3851 11.1863 14.804 11.1863 15.0624 11.4446Z" fill="#323232"/>
<path fill-rule="evenodd" clip-rule="evenodd" d="M1.36369 6.48773C1.36369 5.37623 1.36369 4.82048 1.58 4.39595C1.77027 4.02251 2.07388 3.7189 2.44731 3.52863C2.87185 3.31232 3.4276 3.31232 4.5391 3.31232H11.4192C12.5307 3.31232 13.0864 3.31232 13.5109 3.52863C13.8844 3.7189 14.188 4.02251 14.3783 4.39595C14.5946 4.82048 14.5946 5.37623 14.5946 6.48773V8.73698C14.5946 8.92223 14.5946 9.01485 14.5585 9.08561C14.5268 9.14785 14.4762 9.19845 14.414 9.23016C14.3432 9.26621 14.2506 9.26621 14.0653 9.26621H12.6099C10.4178 9.26621 8.64067 11.0433 8.64067 13.2355V13.3678C8.64067 13.553 8.64067 13.6457 8.60462 13.7164C8.57291 13.7787 8.52231 13.8293 8.46007 13.861C8.38931 13.897 8.29669 13.897 8.11143 13.897H4.5391C3.4276 13.897 2.87185 13.897 2.44731 13.6807C2.07388 13.4904 1.77027 13.1868 1.58 12.8134C1.36369 12.3889 1.36369 11.8331 1.36369 10.7216V6.48773ZM4.12588 6.24581C4.33257 5.94453 4.74435 5.86784 5.04563 6.07452L7.6049 7.83017C7.8304 7.98487 8.12785 7.98487 8.35336 7.83017L10.9126 6.07452C11.2139 5.86784 11.6257 5.94453 11.8324 6.24581C12.039 6.54709 11.9624 6.95888 11.6611 7.16556L9.10181 8.92122C8.4253 9.38531 7.53296 9.3853 6.85644 8.92122L4.29718 7.16556C3.9959 6.95888 3.9192 6.54709 4.12588 6.24581Z" fill="#323232"/>
</g>
<defs>
<clipPath id="clip0_1_425">
<rect width="15.8771" height="15.8771" fill="white" transform="translate(0.040596 0.666138)"/>
</clipPath>
</defs>
</svg>
