<svg width="14" height="11" viewBox="0 0 14 11" fill="none" xmlns="http://www.w3.org/2000/svg">
<path fill-rule="evenodd" clip-rule="evenodd" d="M12.8495 7.21237C13.1827 7.59082 13.5946 8.17388 13.5946 8.88928C13.5946 9.93206 12.7492 10.7774 11.7065 10.7774L2.2518 10.7774C1.20902 10.7774 0.363686 9.93206 0.363686 8.88928C0.363686 8.17388 0.775529 7.59082 1.10871 7.21237C1.36851 6.91726 1.68677 6.38283 1.68677 5.48504C1.68677 4.58724 1.36851 4.05282 1.10871 3.75771C0.775525 3.37926 0.363686 2.7962 0.363686 2.08081C0.363686 1.03804 1.20902 0.192703 2.25179 0.192702L11.7065 0.192688C12.7492 0.192687 13.5946 1.03802 13.5946 2.0808C13.5946 2.7962 13.1827 3.37926 12.8495 3.75771C12.5897 4.05282 12.2715 4.58725 12.2715 5.48504C12.2715 6.38283 12.5897 6.91726 12.8495 7.21237ZM8.77 3.69417C8.51165 3.43582 8.09278 3.43582 7.83443 3.69417L5.18826 6.34035C4.92991 6.5987 4.92991 7.01756 5.18826 7.27591C5.44661 7.53426 5.86547 7.53426 6.12382 7.27591L8.77 4.62974C9.02835 4.37139 9.02835 3.95252 8.77 3.69417ZM6.31758 4.16195C6.31758 4.52731 6.0214 4.8235 5.65604 4.8235C5.29068 4.8235 4.99449 4.52731 4.99449 4.16195C4.99449 3.79659 5.29068 3.50041 5.65604 3.50041C6.0214 3.50041 6.31758 3.79659 6.31758 4.16195ZM7.64067 6.80813C7.64067 7.17349 7.93685 7.46967 8.30222 7.46967C8.66758 7.46967 8.96376 7.17349 8.96376 6.80813C8.96376 6.44277 8.66758 6.14659 8.30222 6.14659C7.93685 6.14659 7.64067 6.44277 7.64067 6.80813Z" fill="#323232"/>
</svg>
