<svg width="16" height="17" viewBox="0 0 16 17" fill="none" xmlns="http://www.w3.org/2000/svg">
<path d="M8.01521 7.46271H7.94391C7.95558 7.46284 7.96732 7.46291 7.97913 7.46291C7.99123 7.46292 8.00326 7.46285 8.01521 7.46271Z" fill="#323232"/>
<path d="M11.9732 7.46271C11.9649 7.46284 11.9567 7.46291 11.9484 7.46291C11.9388 7.46291 11.9293 7.46284 11.9198 7.46271H11.9732Z" fill="#323232"/>
<path d="M12.7809 8.66438C13.0147 8.59555 13.2715 8.75756 13.2715 9.00134V12.7551C13.2715 13.8511 12.3829 14.7397 11.2868 14.7397H10.0561C9.63973 14.7397 9.30222 14.4022 9.30222 13.9858V12.0935C9.30222 11.3628 8.70985 10.7704 7.97913 10.7704C7.24841 10.7704 6.65604 11.3628 6.65604 12.0935V13.9858C6.65604 14.4022 6.31853 14.7397 5.90219 14.7397H4.67141C3.57533 14.7397 2.68678 13.8511 2.68678 12.7551V9.00114C2.68678 8.75737 2.94351 8.59536 3.17737 8.66418C3.44103 8.74177 3.72003 8.7858 4.00986 8.7858C4.70341 8.7858 5.27648 8.57191 5.72577 8.29724C5.84523 8.2242 5.99641 8.22468 6.11626 8.29706C6.59922 8.58871 7.21567 8.78589 7.97894 8.786C8.74239 8.78611 9.35898 8.58896 9.84202 8.29725C9.96189 8.22486 10.1131 8.22439 10.2325 8.29743C10.6818 8.57211 11.2549 8.786 11.9484 8.786C12.2382 8.786 12.5172 8.74197 12.7809 8.66438Z" fill="#323232"/>
<path d="M4.67141 2.83218C5.33295 2.8314 10.6253 2.8331 11.2868 2.83279C12.6099 2.83218 13.933 3.82449 13.933 5.47835C13.933 6.47067 12.9407 7.46299 11.9484 7.46299C10.6253 7.46299 9.96376 6.1399 9.96376 6.1399C9.96376 6.1399 9.63299 7.46322 7.97913 7.46299C6.32527 7.46275 5.9945 6.1399 5.9945 6.1399C5.9945 6.1399 5.33295 7.46278 4.00986 7.46278C3.01755 7.46278 2.02523 6.47067 2.02523 5.47835C2.02523 3.82449 3.34832 2.83374 4.67141 2.83218Z" fill="#323232"/>
</svg>
