<svg width="44" height="44" viewBox="0 0 44 44" fill="none" xmlns="http://www.w3.org/2000/svg">
<path fill-rule="evenodd" clip-rule="evenodd" d="M24.834 1.50835C23.5112 -0.2361 20.8888 -0.2361 19.566 1.50835L16.5974 5.4234C16.1257 6.04552 15.3551 6.36473 14.5816 6.25839L9.71414 5.58914C7.54531 5.29094 5.69094 7.14531 5.98914 9.31414L6.65838 14.1816C6.76473 14.9551 6.44551 15.7257 5.8234 16.1974L1.90834 19.166C0.163893 20.4888 0.163894 23.1112 1.90834 24.434L5.8234 27.4026C6.44551 27.8743 6.76473 28.645 6.65838 29.4184L5.98914 34.2859C5.69094 36.4547 7.54531 38.3091 9.71413 38.0109L14.5816 37.3416C15.3551 37.2353 16.1257 37.5545 16.5974 38.1766L19.566 42.0917C20.8888 43.8361 23.5112 43.8361 24.834 42.0917L27.8026 38.1766C28.2743 37.5545 29.045 37.2353 29.8184 37.3416L34.6859 38.0109C36.8547 38.3091 38.7091 36.4547 38.4109 34.2859L37.7416 29.4184C37.6353 28.645 37.9545 27.8743 38.5766 27.4026L42.4917 24.434C44.2361 23.1112 44.2361 20.4888 42.4917 19.166L38.5766 16.1974C37.9545 15.7257 37.6353 14.9551 37.7416 14.1816L38.4109 9.31414C38.7091 7.14532 36.8547 5.29094 34.6859 5.58914L29.8184 6.25839C29.045 6.36473 28.2743 6.04552 27.8026 5.4234L24.834 1.50835Z" fill="#FFC300"/>
</svg>
