<svg width="30" height="30" viewBox="0 0 30 30" fill="none">
<path d="M6.875 12.5H9.375C11.875 12.5 13.125 11.25 13.125 8.75V6.25C13.125 3.75 11.875 2.5 9.375 2.5H6.875C4.375 2.5 3.125 3.75 3.125 6.25V8.75C3.125 11.25 4.375 12.5 6.875 12.5Z" stroke="#858181" stroke-width="1.5" stroke-miterlimit="10" stroke-linecap="round" stroke-linejoin="round"/>
<path d="M21.875 12.5H24.375C26.875 12.5 28.125 11.25 28.125 8.75V6.25C28.125 3.75 26.875 2.5 24.375 2.5H21.875C19.375 2.5 18.125 3.75 18.125 6.25V8.75C18.125 11.25 19.375 12.5 21.875 12.5Z" stroke="#858181" stroke-width="1.5" stroke-miterlimit="10" stroke-linecap="round" stroke-linejoin="round"/>
<path d="M21.875 27.5H24.375C26.875 27.5 28.125 26.25 28.125 23.75V21.25C28.125 18.75 26.875 17.5 24.375 17.5H21.875C19.375 17.5 18.125 18.75 18.125 21.25V23.75C18.125 26.25 19.375 27.5 21.875 27.5Z" stroke="#858181" stroke-width="1.5" stroke-miterlimit="10" stroke-linecap="round" stroke-linejoin="round"/>
<path d="M6.875 27.5H9.375C11.875 27.5 13.125 26.25 13.125 23.75V21.25C13.125 18.75 11.875 17.5 9.375 17.5H6.875C4.375 17.5 3.125 18.75 3.125 21.25V23.75C3.125 26.25 4.375 27.5 6.875 27.5Z" stroke="#858181" stroke-width="1.5" stroke-miterlimit="10" stroke-linecap="round" stroke-linejoin="round"/>
</svg>
