<svg width="16" height="17" viewBox="0 0 16 17" fill="none" xmlns="http://www.w3.org/2000/svg">
<path d="M7.99967 15.3719C7.79301 15.3719 7.59301 15.3452 7.42634 15.2852C4.87967 14.4119 0.833008 11.3119 0.833008 6.73191C0.833008 4.39858 2.71967 2.50525 5.03967 2.50525C6.16634 2.50525 7.21967 2.94525 7.99967 3.73192C8.77967 2.94525 9.83301 2.50525 10.9597 2.50525C13.2797 2.50525 15.1663 4.40525 15.1663 6.73191C15.1663 11.3186 11.1197 14.4119 8.57301 15.2852C8.40634 15.3452 8.20634 15.3719 7.99967 15.3719ZM5.03967 3.50525C3.27301 3.50525 1.83301 4.95192 1.83301 6.73191C1.83301 11.2852 6.21301 13.8186 7.75301 14.3452C7.87301 14.3852 8.13301 14.3852 8.25301 14.3452C9.78634 13.8186 14.173 11.2919 14.173 6.73191C14.173 4.95192 12.733 3.50525 10.9663 3.50525C9.95301 3.50525 9.01301 3.97858 8.40634 4.79858C8.21967 5.05192 7.79301 5.05192 7.60634 4.79858C6.98634 3.97192 6.05301 3.50525 5.03967 3.50525Z" fill="#5E0A8E"/>
</svg>
