<svg width="32" height="32" viewBox="0 0 32 32" fill="none">
<path d="M29.333 2.66675H27.013C25.573 2.66675 24.4397 3.90675 24.5597 5.33341L25.6663 18.6134C25.853 20.7867 24.133 22.6534 21.9464 22.6534H7.74634C5.82634 22.6534 4.14634 21.0801 3.99968 19.1734L3.27968 9.17342C3.11968 6.96009 4.79968 5.16007 7.02635 5.16007H24.2397" stroke="#292D32" stroke-width="2" stroke-miterlimit="10" stroke-linecap="round" stroke-linejoin="round"/>
<path d="M10.3333 29.3333C9.41286 29.3333 8.66667 28.5871 8.66667 27.6667C8.66667 26.7462 9.41286 26 10.3333 26C11.2538 26 12 26.7462 12 27.6667C12 28.5871 11.2538 29.3333 10.3333 29.3333Z" stroke="#292D32" stroke-width="2" stroke-miterlimit="10" stroke-linecap="round" stroke-linejoin="round"/>
<path d="M21.0003 29.3333C20.0799 29.3333 19.3337 28.5871 19.3337 27.6667C19.3337 26.7462 20.0799 26 21.0003 26C21.9208 26 22.667 26.7462 22.667 27.6667C22.667 28.5871 21.9208 29.3333 21.0003 29.3333Z" stroke="#292D32" stroke-width="2" stroke-miterlimit="10" stroke-linecap="round" stroke-linejoin="round"/>
<path d="M20 10.6667H4" stroke="#292D32" stroke-width="2" stroke-miterlimit="10" stroke-linecap="round" stroke-linejoin="round"/>
</svg>
