<svg width="73" height="73" viewBox="0 0 73 73" fill="none" xmlns="http://www.w3.org/2000/svg">
<g clip-path="url(#clip0_2556_42838)">
<path d="M72.119 30.3685C72.38 29.6155 72.5 28.8415 72.5 28.0765C72.5 25.7665 71.36 23.5345 69.335 22.1335C62.876 17.6575 63.731 18.7825 61.298 11.5045C60.278 8.46548 57.341 6.41348 54.026 6.41348H54.005C46.046 6.44048 47.426 6.86648 41.003 2.35148C39.665 1.40948 38.081 0.938477 36.5 0.938477C34.919 0.938477 33.335 1.40948 31.994 2.35148C25.526 6.89648 26.936 6.43748 18.992 6.41048H18.971C15.659 6.41048 12.719 8.46548 11.705 11.5015C9.269 18.7975 10.103 17.6695 3.671 22.1335C1.64 23.5405 0.5 25.7695 0.5 28.0825C0.5 28.8445 0.626 29.6155 0.881 30.3685C3.374 37.6525 3.368 36.2545 0.881 43.5085C0.626 44.2615 0.5 45.0295 0.5 45.7945C0.5 48.1045 1.64 50.3365 3.671 51.7435C10.109 56.2135 9.275 55.0825 11.708 62.3725C12.722 65.4115 15.659 67.4635 18.974 67.4635H18.995C26.954 67.4365 25.574 67.0075 31.997 71.5225C33.335 72.4645 34.919 72.9385 36.5 72.9385C38.081 72.9385 39.665 72.4645 41.006 71.5255C47.429 67.0135 46.043 67.4395 54.008 67.4665H54.029C57.341 67.4665 60.281 65.4115 61.301 62.3755C63.734 55.0945 62.876 56.2195 69.338 51.7465C71.36 50.3395 72.5 48.1075 72.5 45.7975C72.5 45.0355 72.38 44.2615 72.119 43.5085C69.626 36.2245 69.638 37.6195 72.119 30.3685ZM36.5 62.4385C22.418 62.4385 11 51.0205 11 36.9385C11 22.8565 22.418 11.4385 36.5 11.4385C50.582 11.4385 62 22.8565 62 36.9385C62 51.0205 50.582 62.4385 36.5 62.4385ZM32.75 48.8125L21.5 37.9015L26.147 33.2575L32.75 39.5215L46.853 25.0645L51.5 29.7085L32.75 48.8125Z" fill="#7933A1"/>
</g>
<defs>
<clipPath id="clip0_2556_42838">
<rect width="72" height="72" fill="white" transform="translate(0.5 0.938477)"/>
</clipPath>
</defs>
</svg>
