<svg width="32" height="32" viewBox="0 0 32 32" fill="none">
<circle cx="16" cy="16" r="16" fill="#151A44"/>
<path d="M22.3531 18.62C22.2465 18.44 21.9465 18.16 21.1998 18.2933C20.7865 18.3667 20.3665 18.4 19.9465 18.38C18.3931 18.3133 16.9865 17.6 16.0065 16.5C15.1398 15.5333 14.6065 14.2733 14.5998 12.9133C14.5998 12.1533 14.7465 11.42 15.0465 10.7267C15.3398 10.0533 15.1331 9.7 14.9865 9.55333C14.8331 9.4 14.4731 9.18666 13.7665 9.48C11.0398 10.6267 9.35314 13.36 9.55314 16.2867C9.75314 19.04 11.6865 21.3933 14.2465 22.28C14.8598 22.4933 15.5065 22.62 16.1731 22.6467C16.2798 22.6533 16.3865 22.66 16.4931 22.66C18.7265 22.66 20.8198 21.6067 22.1398 19.8133C22.5865 19.1933 22.4665 18.8 22.3531 18.62Z" fill="white"/>
</svg>
