<svg width="73" height="73" viewBox="0 0 73 73" fill="none" xmlns="http://www.w3.org/2000/svg">
<g clip-path="url(#clip0_2556_42842)">
<path fill-rule="evenodd" clip-rule="evenodd" d="M15.5 54.9385H12.5C10.844 54.9385 9.5 53.5945 9.5 51.9385V45.9385H45.5V18.9385H59.501C62.852 18.9385 64.301 20.6665 65.309 22.2595C67.091 25.0795 69.917 29.5555 71.636 32.3935C72.2 33.3295 72.5 34.4035 72.5 35.4985V48.9385C72.5 52.3015 70.316 54.9385 66.5 54.9385H63.5C63.5 59.9065 59.468 63.9385 54.5 63.9385C49.532 63.9385 45.5 59.9065 45.5 54.9385H33.5C33.5 59.9065 29.468 63.9385 24.5 63.9385C19.532 63.9385 15.5 59.9065 15.5 54.9385ZM24.5 51.3385C26.486 51.3385 28.1 52.9525 28.1 54.9385C28.1 56.9245 26.486 58.5385 24.5 58.5385C22.514 58.5385 20.9 56.9245 20.9 54.9385C20.9 52.9525 22.514 51.3385 24.5 51.3385ZM54.5 51.3385C56.486 51.3385 58.1 52.9525 58.1 54.9385C58.1 56.9245 56.486 58.5385 54.5 58.5385C52.514 58.5385 50.9 56.9245 50.9 54.9385C50.9 52.9525 52.514 51.3385 54.5 51.3385ZM24.5 24.9385H0.5V18.9385H24.5V15.9385H9.5V12.9385C9.5 11.2825 10.844 9.93848 12.5 9.93848H39.5C41.156 9.93848 42.5 11.2825 42.5 12.9385V42.9385H9.5V33.9385H3.5V27.9385H24.5V24.9385ZM51.5 24.9385V33.9385H65.645L61.364 26.4505C60.83 25.5145 59.837 24.9385 58.76 24.9385H51.5Z" fill="#7933A1"/>
</g>
<defs>
<clipPath id="clip0_2556_42842">
<rect width="72" height="72" fill="white" transform="translate(0.5 0.938477)"/>
</clipPath>
</defs>
</svg>
